#N canvas 827 239 527 327 12;
#X msg 237 230 baud 115200 \, open 6;
#X msg 386 230 close;
#X obj 169 306 comport;
#X msg 169 566 netsend -u -b;
#X msg 345 449 connect 127.0.0.1 8001;
#X msg 169 184 devices;
#X msg 328 546 disconnect;
#X msg 169 391 pdchoco/slip_parse;
#X connect 0 0 2 0;
#X connect 1 0 2 0;
#X connect 2 0 7 0;
#X connect 4 0 3 0;
#X connect 5 0 2 0;
#X connect 6 0 3 0;
#X connect 7 0 3 0;
